<svg width="17" height="16" viewBox="0 0 17 16" fill="none" xmlns="http://www.w3.org/2000/svg">
<g id="Eye">
<path id="Vector" d="M15.5267 7.73332C14.0958 4.60666 11.4042 2.66666 8.49999 2.66666C5.59582 2.66666 2.90415 4.60666 1.47332 7.73332C1.43432 7.81743 1.41418 7.90822 1.41418 7.99999C1.41418 8.09176 1.43432 8.18255 1.47332 8.26666C2.90415 11.3933 5.59582 13.3333 8.49999 13.3333C11.4042 13.3333 14.0958 11.3933 15.5267 8.26666C15.5657 8.18255 15.5858 8.09176 15.5858 7.99999C15.5858 7.90822 15.5657 7.81743 15.5267 7.73332ZM8.49999 12C6.25457 12 4.12957 10.4733 2.90415 7.99999C4.12957 5.52666 6.25457 3.99999 8.49999 3.99999C10.7454 3.99999 12.8704 5.52666 14.0958 7.99999C12.8704 10.4733 10.7454 12 8.49999 12ZM8.49999 5.33332C7.93961 5.33332 7.39181 5.48972 6.92587 5.78274C6.45993 6.07575 6.09678 6.49223 5.88233 6.9795C5.66788 7.46677 5.61177 8.00295 5.72109 8.52023C5.83042 9.03751 6.10027 9.51267 6.49652 9.88561C6.89277 10.2585 7.39762 10.5125 7.94723 10.6154C8.49684 10.7183 9.06653 10.6655 9.58426 10.4637C10.102 10.2618 10.5445 9.92004 10.8558 9.48151C11.1671 9.04298 11.3333 8.52741 11.3333 7.99999C11.3333 7.29275 11.0348 6.61447 10.5035 6.11437C9.9721 5.61427 9.25143 5.33332 8.49999 5.33332ZM8.49999 9.33332C8.2198 9.33332 7.9459 9.25512 7.71293 9.10862C7.47996 8.96211 7.29838 8.75387 7.19116 8.51023C7.08393 8.2666 7.05588 7.99851 7.11054 7.73987C7.1652 7.48123 7.30013 7.24365 7.49825 7.05718C7.69638 6.87071 7.9488 6.74372 8.22361 6.69228C8.49841 6.64083 8.78326 6.66723 9.04212 6.76815C9.30098 6.86907 9.52223 7.03996 9.6779 7.25923C9.83357 7.4785 9.91665 7.73628 9.91665 7.99999C9.91665 8.35361 9.7674 8.69275 9.50172 8.9428C9.23604 9.19285 8.87571 9.33332 8.49999 9.33332Z" fill="white"/>
</g>
</svg>
