<svg width="19" height="19" viewBox="0 0 19 19" fill="none" xmlns="http://www.w3.org/2000/svg">
<g id="&#240;&#159;&#166;&#134; icon &#34;plus&#34;">
<path id="Vector" d="M15.0417 8.70833H10.2917V3.95833C10.2917 3.74837 10.2083 3.547 10.0598 3.39854C9.91135 3.25007 9.70998 3.16666 9.50002 3.16666C9.29006 3.16666 9.08869 3.25007 8.94023 3.39854C8.79176 3.547 8.70835 3.74837 8.70835 3.95833V8.70833H3.95835C3.74839 8.70833 3.54703 8.79174 3.39856 8.9402C3.25009 9.08867 3.16669 9.29003 3.16669 9.5C3.16669 9.70996 3.25009 9.91132 3.39856 10.0598C3.54703 10.2083 3.74839 10.2917 3.95835 10.2917H8.70835V15.0417C8.70835 15.2516 8.79176 15.453 8.94023 15.6015C9.08869 15.7499 9.29006 15.8333 9.50002 15.8333C9.70998 15.8333 9.91135 15.7499 10.0598 15.6015C10.2083 15.453 10.2917 15.2516 10.2917 15.0417V10.2917H15.0417C15.2516 10.2917 15.453 10.2083 15.6015 10.0598C15.7499 9.91132 15.8334 9.70996 15.8334 9.5C15.8334 9.29003 15.7499 9.08867 15.6015 8.9402C15.453 8.79174 15.2516 8.70833 15.0417 8.70833Z" fill="white"/>
</g>
</svg>
